<svg xmlns="http://www.w3.org/2000/svg" viewBox="0 0 256 256" role="img" aria-label="MatGo">
  <!-- plank-m v2：intro 色系，深绿分层 + 柠绿信号砖 -->
  <rect x="36" y="42" width="68" height="28" rx="6" fill="#3f7a60"/>
  <rect x="152" y="42" width="68" height="28" rx="6" fill="#97C817" opacity="0.22"/>
  <rect x="164" y="28" width="68" height="28" rx="6" fill="#97C817"/>
  <rect x="36" y="78" width="86" height="28" rx="6" fill="#286047"/>
  <rect x="134" y="78" width="86" height="28" rx="6" fill="#286047"/>
  <rect x="36" y="114" width="184" height="28" rx="6" fill="#1a4935"/>
  <rect x="36" y="150" width="48" height="28" rx="6" fill="#103d33"/>
  <rect x="106" y="150" width="44" height="28" rx="6" fill="#103d33"/>
  <rect x="172" y="150" width="48" height="28" rx="6" fill="#103d33"/>
  <rect x="36" y="186" width="48" height="28" rx="6" fill="#082C24"/>
  <rect x="118" y="186" width="20" height="28" rx="6" fill="#082C24"/>
  <rect x="172" y="186" width="48" height="28" rx="6" fill="#082C24"/>
</svg>
