<svg xmlns="http://www.w3.org/2000/svg" viewBox="0 0 640 200">
  <!-- plank-m / cw-obsidian-emerald lockup, dark background (~#0b1014): figure-ground inverted, graphite strata become silver; emerald signal lifted -->
  <g transform="translate(49.3,24.4) scale(0.625)">
    <rect x="36" y="42" width="68" height="28" rx="6" fill="#eceff4"/>
    <rect x="152" y="42" width="68" height="28" rx="6" fill="#34d399" opacity="0.18"/>
    <rect x="164" y="28" width="68" height="28" rx="6" fill="#34d399"/>
    <rect x="36" y="78" width="86" height="28" rx="6" fill="#d4d9e2"/>
    <rect x="134" y="78" width="86" height="28" rx="6" fill="#d4d9e2"/>
    <rect x="36" y="114" width="184" height="28" rx="6" fill="#b7bfcc"/>
    <rect x="36" y="150" width="48" height="28" rx="6" fill="#98a1b1"/>
    <rect x="106" y="150" width="44" height="28" rx="6" fill="#98a1b1"/>
    <rect x="172" y="150" width="48" height="28" rx="6" fill="#98a1b1"/>
    <rect x="36" y="186" width="48" height="28" rx="6" fill="#7b8496"/>
    <rect x="118" y="186" width="20" height="28" rx="6" fill="#7b8496"/>
    <rect x="172" y="186" width="48" height="28" rx="6" fill="#7b8496"/>
  </g>
  <text x="270" y="127" font-family="Inter, 'Segoe UI', 'Helvetica Neue', Arial, sans-serif" font-size="104" font-weight="600" letter-spacing="-1.5" fill="#edf0f6">mat<tspan fill="#34d399">go</tspan></text>
</svg>
