<svg xmlns="http://www.w3.org/2000/svg" viewBox="0 0 640 200">
  <!-- plank-m / cw-obsidian-emerald lockup, light background -->
  <g transform="translate(49.3,24.4) scale(0.625)">
    <rect x="36" y="42" width="68" height="28" rx="6" fill="#454c59"/>
    <rect x="152" y="42" width="68" height="28" rx="6" fill="#10b981" opacity="0.15"/>
    <rect x="164" y="28" width="68" height="28" rx="6" fill="#10b981"/>
    <rect x="36" y="78" width="86" height="28" rx="6" fill="#383e4a"/>
    <rect x="134" y="78" width="86" height="28" rx="6" fill="#383e4a"/>
    <rect x="36" y="114" width="184" height="28" rx="6" fill="#2b303b"/>
    <rect x="36" y="150" width="48" height="28" rx="6" fill="#20242e"/>
    <rect x="106" y="150" width="44" height="28" rx="6" fill="#20242e"/>
    <rect x="172" y="150" width="48" height="28" rx="6" fill="#20242e"/>
    <rect x="36" y="186" width="48" height="28" rx="6" fill="#15181f"/>
    <rect x="118" y="186" width="20" height="28" rx="6" fill="#15181f"/>
    <rect x="172" y="186" width="48" height="28" rx="6" fill="#15181f"/>
  </g>
  <text x="270" y="127" font-family="Inter, 'Segoe UI', 'Helvetica Neue', Arial, sans-serif" font-size="104" font-weight="600" letter-spacing="-1.5" fill="#15181f">mat<tspan fill="#0c9468">go</tspan></text>
</svg>
